<svg width="219" height="229" viewBox="0 0 219 229" fill="none" xmlns="http://www.w3.org/2000/svg">
<path d="M182.039 74.3857C177.607 76.135 166.484 72.3438 159.418 72.4692C152.351 72.5947 141.389 75.2569 135.674 69.5631C129.959 63.8694 159.55 67.1588 165.641 67.7094C176.938 68.7199 188.527 71.8699 182.039 74.3857Z" fill="#FAFAFA"/>
<path d="M40.7724 89.6952C40.4568 89.6965 40.1441 89.6349 39.8525 89.514L27.803 84.566C27.2041 84.3202 26.7275 83.8465 26.4778 83.2492C26.2282 82.6519 26.2261 81.98 26.4719 81.3811C26.7177 80.7823 27.1914 80.3056 27.7886 80.056C28.3859 79.8063 29.0579 79.8042 29.6568 80.05L41.7063 84.9981C42.2305 85.2122 42.6639 85.6022 42.9321 86.1009C43.2003 86.5997 43.2866 87.1763 43.1762 87.7317C43.0657 88.2871 42.7655 88.7868 42.3269 89.1451C41.8883 89.5034 41.3387 89.6979 40.7724 89.6952Z" fill="white"/>
<path d="M56.7695 77.7643C56.4717 77.7652 56.1763 77.7109 55.8983 77.604C55.2976 77.3688 54.814 76.9059 54.5529 76.3159C54.2919 75.7259 54.2745 75.0567 54.5045 74.4539L56.9437 68.0842C57.1747 67.4798 57.6364 66.9919 58.2271 66.7279C58.8179 66.4639 59.4893 66.4454 60.0937 66.6765C60.6981 66.9075 61.186 67.3692 61.45 67.9599C61.714 68.5507 61.7325 69.2221 61.5015 69.8265L59.0623 76.1962C58.885 76.6598 58.5706 77.0583 58.1609 77.3385C57.7512 77.6187 57.2658 77.7672 56.7695 77.7643Z" fill="white"/>
<path d="M38.6646 61.5768C38.1743 61.5771 37.6953 61.4297 37.29 61.1537C36.8847 60.8777 36.572 60.486 36.3927 60.0296L33.6051 52.8515C33.4884 52.5531 33.4316 52.2347 33.438 51.9144C33.4444 51.5941 33.5138 51.2782 33.6422 50.9847C33.7707 50.6913 33.9557 50.426 34.1867 50.204C34.4176 49.982 34.6901 49.8077 34.9884 49.691C35.2868 49.5743 35.6052 49.5175 35.9255 49.5239C36.2458 49.5303 36.5617 49.5997 36.8552 49.7281C37.1487 49.8566 37.414 50.0416 37.6359 50.2726C37.8579 50.5036 38.0322 50.776 38.1489 51.0744L40.9365 58.2525C41.0534 58.5512 41.11 58.8701 41.1032 59.1908C41.0963 59.5115 41.0261 59.8276 40.8965 60.121C40.767 60.4145 40.5807 60.6794 40.3483 60.9005C40.116 61.1216 39.8422 61.2946 39.5427 61.4095C39.2635 61.5211 38.9654 61.5779 38.6646 61.5768Z" fill="white"/>
<path d="M159.359 41.5158C154.662 42.596 147.993 45.2373 142.076 47.5998C142.165 47.1567 142.217 46.7067 142.229 46.2548C141.923 46.8053 141.616 47.3489 141.316 47.9065L141.093 47.9971C141.118 47.3996 141.076 46.8012 140.968 46.213C140.811 47.0036 140.469 47.7461 139.971 48.3804C139.948 48.4145 139.922 48.4471 139.895 48.4779L138.71 48.9588C138.853 47.7667 138.853 46.5618 138.71 45.3697C138.606 46.5028 138.424 47.6275 138.166 48.7358C138.125 48.903 138.09 49.0703 138.041 49.2445L136.501 49.8787C136.396 49.4536 136.285 49.0285 136.173 48.6034L135.616 50.2759L134.975 50.5408C134.885 49.8995 134.738 49.2674 134.536 48.6522C134.47 49.4043 134.344 50.1501 134.159 50.8823L133.637 51.1053C133.61 49.9614 133.475 48.8226 133.232 47.7044C133.128 48.5755 133.023 49.4327 132.926 50.2969L132.779 51.4607C130.487 52.4364 129.051 53.0705 129.051 53.0705C129.051 53.0705 128.884 44.7774 129.051 32.2051C129.218 19.6329 131.72 9.34657 136.849 4.32884C141.979 -0.688892 152.92 -1.57396 158.084 2.88624C163.248 7.34645 164.705 17.814 162.746 28.0376C161.61 33.9544 172.552 38.4773 159.359 41.5158Z" fill="#263238"/>
<path d="M113.447 98.4886L113.935 97.0042C114.128 96.4199 114.447 95.8851 114.869 95.4382C115.292 94.9913 115.808 94.6432 116.381 94.4187L122.828 91.875L126.054 93.45C125.19 96.9694 121.218 100.524 121.218 100.524L120.207 101.632C119.784 102.116 119.211 102.444 118.579 102.563C117.946 102.682 117.293 102.585 116.723 102.287L114.298 100.893C113.895 100.657 113.589 100.286 113.434 99.846C113.278 99.4061 113.283 98.9253 113.447 98.4886Z" fill="#FFBDA7"/>
<path d="M149.846 57.624C149.72 58.8018 149.588 59.8332 149.427 60.9134C149.267 61.9936 149.079 63.0529 148.891 64.1122C148.493 66.2029 148.041 68.3494 147.497 70.454C146.953 72.5587 146.368 74.6355 145.692 76.7262C145.016 78.8169 144.228 80.8728 143.371 82.9217L143.253 83.2074C143.088 83.5986 142.852 83.9556 142.556 84.2598C141.107 85.7097 139.535 87.0317 137.859 88.2112C136.298 89.3681 134.695 90.3995 133.099 91.4031C131.503 92.4066 129.872 93.3335 128.22 94.1907C126.569 95.0479 124.924 95.933 123.182 96.7135C122.661 96.9491 122.073 96.9907 121.523 96.8306C120.974 96.6706 120.501 96.3196 120.188 95.8409C119.875 95.3622 119.743 94.7874 119.817 94.2202C119.891 93.6531 120.164 93.131 120.589 92.7481H120.624C121.969 91.5425 123.363 90.3438 124.729 89.159C126.095 87.9743 127.475 86.7896 128.813 85.5978C130.151 84.4061 131.475 83.2144 132.736 82.0297C133.931 80.928 135.053 79.7501 136.096 78.5033L135.287 79.8344C135.879 77.9737 136.416 76.0851 136.911 74.1616C137.406 72.2381 137.845 70.2868 138.242 68.3215C138.639 66.3562 139.023 64.384 139.364 62.3978L139.859 59.429L140.312 56.5229V56.3835C140.393 55.7598 140.596 55.1581 140.909 54.6129C141.223 54.0677 141.641 53.5895 142.139 53.2058C142.637 52.822 143.206 52.5402 143.814 52.3763C144.421 52.2125 145.054 52.1698 145.678 52.2508C146.302 52.3318 146.903 52.5349 147.449 52.8484C147.994 53.1619 148.472 53.5797 148.856 54.078C149.239 54.5763 149.521 55.1453 149.685 55.7525C149.849 56.3597 149.892 56.9933 149.811 57.617L149.846 57.624Z" fill="#FFBDA7"/>
<path d="M150.048 44.2109C136.995 45.8138 134.765 70.6934 135.95 75.6903C137.789 79.9902 145.797 77.781 145.797 77.781C145.797 77.781 158.487 58.9087 150.048 44.2109Z" fill="#25435F"/>
<path d="M147.119 77.0272C146.825 77.7456 146.431 78.4189 145.949 79.0274C145.911 79.0757 145.86 79.1121 145.802 79.1319C145.105 79.4316 140.088 81.3481 135.885 78.4977C135.812 78.4515 135.756 78.3831 135.725 78.3026C135.326 77.2246 135.146 76.0779 135.195 74.9296C135.197 74.8653 135.214 74.8024 135.245 74.7459C135.276 74.6894 135.319 74.641 135.372 74.6044C135.425 74.5678 135.486 74.5441 135.55 74.5352C135.613 74.5263 135.678 74.5325 135.739 74.5532C137.328 75.1247 142.297 76.7345 146.715 76.4558C146.785 76.4514 146.855 76.4649 146.919 76.4952C146.982 76.5255 147.036 76.5714 147.077 76.6287C147.117 76.686 147.143 76.7527 147.15 76.8224C147.157 76.8922 147.147 76.9627 147.119 77.0272Z" fill="white"/>
<path d="M200.988 228.149C207.35 228.149 206.884 228.052 210.452 227.926C213.504 227.822 214.271 228.205 216.724 228.149C218.78 228.101 218.557 226.135 217.748 223.87C217.344 222.735 216.752 221.341 216.173 219.508H206.5C205.378 222.01 202.904 223.891 199.357 224.386C195.963 224.832 198.444 228.149 200.988 228.149Z" fill="#263238"/>
<path d="M148.406 228.144C156.497 228.144 157.27 224.659 160.253 222.813C162.832 221.238 163.856 221.677 166.525 220.171C168.288 219.182 167.508 217 166.093 215.837C164.795 214.789 163.64 213.575 162.657 212.227L154.768 215.711C154.336 218.889 152.845 224.241 148.092 224.576C144.712 224.848 145.904 228.144 148.406 228.144Z" fill="#263238"/>
<path d="M150 93.5952C150 93.5952 134.668 132.622 132.633 151.975C132.577 168.004 154.788 215.735 154.788 215.735C155.485 216.927 161.854 213.498 162.677 212.251C154.495 192.277 158.795 167.286 151.415 152.623C167.234 130.127 179.507 88.5078 179.507 88.5078L150 93.5952Z" fill="#B9958E"/>
<path opacity="0.2" d="M147.376 103.312C147.33 103.317 147.283 103.304 147.247 103.275C147.21 103.247 147.186 103.205 147.181 103.158C147.175 103.112 147.188 103.066 147.217 103.029C147.246 102.992 147.288 102.969 147.334 102.963C149.252 102.55 150.951 101.446 152.108 99.862C152.132 99.8236 152.171 99.7963 152.215 99.7859C152.259 99.7755 152.306 99.7828 152.345 99.8063C152.365 99.8177 152.382 99.833 152.396 99.8513C152.409 99.8696 152.419 99.8905 152.424 99.9127C152.429 99.9349 152.43 99.9579 152.426 99.9803C152.422 100.003 152.413 100.024 152.401 100.043C151.208 101.72 149.426 102.885 147.411 103.305L147.376 103.312Z" fill="white"/>
<path opacity="0.2" d="M164.373 111.603C160.959 118.516 160.422 128.831 160.694 136.734C164.964 128.101 168.772 119.247 172.102 110.209L172.067 110.174C171.51 109.658 170.839 109.279 170.109 109.067C169.379 108.856 168.609 108.818 167.862 108.957C167.114 109.096 166.41 109.407 165.804 109.867C165.198 110.326 164.709 110.921 164.373 111.603Z" fill="black"/>
<path d="M158.844 92.0892C158.844 92.0892 162.921 128.544 171.012 153.417C175.054 165.822 198.121 193.998 206.498 219.526C208.059 220.39 213.3 220.446 216.171 219.526C216.171 219.526 203.299 163.418 189.438 151.612C189.396 121.29 190.483 106.655 183.863 87.7266L158.844 92.0892Z" fill="#B9958E"/>
<path opacity="0.2" d="M212.63 216.145C212.59 216.146 212.55 216.132 212.518 216.107C212.486 216.081 212.464 216.046 212.456 216.006C206.727 182.129 186.211 152.587 185.974 152.315C185.963 152.277 185.963 152.236 185.974 152.197C185.974 152.162 186.329 148.015 186.67 132.614C187.005 118.118 185.667 102.389 185.5 100.493C184.413 100.675 178.928 101.42 174.774 98.6953C174.755 98.6826 174.738 98.6662 174.725 98.647C174.712 98.6279 174.703 98.6063 174.699 98.5836C174.694 98.5609 174.694 98.5375 174.699 98.5148C174.703 98.4921 174.712 98.4705 174.725 98.4514C174.752 98.4136 174.792 98.3876 174.838 98.3785C174.883 98.3694 174.93 98.3781 174.969 98.4026C179.451 101.344 185.562 100.131 185.625 100.117C185.646 100.107 185.668 100.102 185.691 100.102C185.714 100.102 185.737 100.107 185.758 100.117C185.778 100.132 185.795 100.15 185.809 100.172C185.822 100.193 185.83 100.217 185.834 100.242C185.834 100.41 187.374 117.198 187.019 132.593C186.677 146.977 186.322 151.563 186.322 152.141C187.298 153.535 207.16 182.638 212.805 215.915C212.808 215.938 212.808 215.962 212.803 215.984C212.797 216.007 212.788 216.028 212.774 216.047C212.76 216.066 212.743 216.082 212.723 216.094C212.703 216.106 212.681 216.114 212.658 216.117L212.63 216.145Z" fill="white"/>
<path d="M204.664 215.89C204.978 217.064 205.211 218.258 205.361 219.465C205.397 219.685 205.501 219.888 205.658 220.046C205.816 220.204 206.019 220.307 206.239 220.343C209.94 220.907 214.825 220.085 216.366 219.792C216.434 219.781 216.5 219.757 216.559 219.72C216.618 219.682 216.668 219.634 216.707 219.576C216.747 219.519 216.774 219.454 216.787 219.385C216.8 219.317 216.799 219.247 216.784 219.179L216.352 215.834C216.309 215.598 216.186 215.385 216.005 215.229C215.823 215.073 215.594 214.984 215.355 214.977L205.187 215.172C205.1 215.169 205.013 215.187 204.934 215.226C204.855 215.264 204.787 215.321 204.736 215.392C204.684 215.463 204.651 215.545 204.638 215.632C204.626 215.719 204.635 215.807 204.664 215.89Z" fill="#AF6152"/>
<path opacity="0.2" d="M204.664 215.89C204.978 217.064 205.211 218.258 205.361 219.465C205.397 219.685 205.501 219.888 205.658 220.046C205.816 220.204 206.019 220.307 206.239 220.343C209.94 220.907 214.825 220.085 216.366 219.792C216.434 219.781 216.5 219.757 216.559 219.72C216.618 219.682 216.668 219.634 216.707 219.576C216.747 219.519 216.774 219.454 216.787 219.385C216.8 219.317 216.799 219.247 216.784 219.179L216.352 215.834C216.309 215.598 216.186 215.385 216.005 215.229C215.823 215.073 215.594 214.984 215.355 214.977L205.187 215.172C205.1 215.169 205.013 215.187 204.934 215.226C204.855 215.264 204.787 215.321 204.736 215.392C204.684 215.463 204.651 215.545 204.638 215.632C204.626 215.719 204.635 215.807 204.664 215.89Z" fill="black"/>
<path d="M152.521 212.612C152.835 213.49 153.385 215.065 153.755 216.243C153.813 216.429 153.942 216.585 154.114 216.676C154.286 216.768 154.488 216.787 154.675 216.73C157.616 215.887 161.929 213.553 163.337 212.772C163.473 212.696 163.581 212.578 163.646 212.437C163.711 212.296 163.73 212.137 163.7 211.984L163.072 208.604C163.052 208.497 163.009 208.395 162.945 208.306C162.88 208.217 162.797 208.144 162.701 208.091C162.605 208.038 162.499 208.008 162.389 208.001C162.28 207.995 162.17 208.013 162.069 208.054L152.946 211.671C152.767 211.741 152.622 211.879 152.542 212.055C152.463 212.231 152.455 212.43 152.521 212.612Z" fill="#AF6152"/>
<path opacity="0.2" d="M152.521 212.612C152.835 213.49 153.385 215.065 153.755 216.243C153.813 216.429 153.942 216.585 154.114 216.676C154.286 216.768 154.488 216.787 154.675 216.73C157.616 215.887 161.929 213.553 163.337 212.772C163.473 212.696 163.581 212.578 163.646 212.437C163.711 212.296 163.73 212.137 163.7 211.984L163.072 208.604C163.052 208.497 163.009 208.395 162.945 208.306C162.88 208.217 162.797 208.144 162.701 208.091C162.605 208.038 162.499 208.008 162.389 208.001C162.28 207.995 162.17 208.013 162.069 208.054L152.946 211.671C152.767 211.741 152.622 211.879 152.542 212.055C152.463 212.231 152.455 212.43 152.521 212.612Z" fill="black"/>
<path d="M149.821 92.1441C149.911 92.5971 149.437 94.5415 148.727 96.2629C149.981 97.1131 154.302 98.0539 159.759 98.2909C160.274 97.4476 160.595 95.2245 160.999 94.3185C161.398 95.8702 162.246 97.2693 163.438 98.3396C166.496 98.2923 169.545 97.9916 172.554 97.4406C183.182 95.4475 185.691 92.1441 185.691 92.1441C185.691 92.1441 183.656 86.0114 183.077 83.7812C177.579 84.1924 150.106 84.9939 149.821 92.1441Z" fill="white"/>
<path d="M139.883 61.2698C141.432 66.2873 143.235 71.223 145.284 76.0581C149.431 86.7208 148.455 89.0694 149.528 93.446C152.501 94.5979 155.658 95.2046 158.846 95.237C159.343 94.1248 159.98 93.0804 160.741 92.1288C161.585 92.6933 164.191 94.3171 165.689 94.4147C172.463 93.3693 181.203 90.742 184.269 87.4944C181.934 78.0722 181.091 67.7998 179.725 45.1991C179.405 39.9653 174.791 36.4389 169.815 37.6307C168.484 37.9512 167.083 38.3276 165.634 38.7387C160.1 40.3765 155.577 41.7633 150.901 43.8959C149.354 44.5928 147.765 45.3803 146.253 46.1538C143.608 47.5496 141.528 49.8181 140.367 52.5737C139.206 55.3294 139.035 58.4022 139.883 61.2698Z" fill="#25435F"/>
<path d="M197.838 98.452L196.786 97.2951C196.375 96.8388 196.069 96.2975 195.891 95.7097C195.713 95.1219 195.666 94.5021 195.754 93.8942L196.751 87.0297L199.72 85.0156C202.34 87.5106 203.455 92.7164 203.455 92.7164L203.915 94.1103C204.119 94.7138 204.118 95.3679 203.911 95.9705C203.704 96.5731 203.304 97.0903 202.772 97.4415L200.34 98.8353C199.944 99.075 199.477 99.168 199.02 99.0979C198.562 99.0279 198.144 98.7992 197.838 98.452Z" fill="#FFBDA7"/>
<path d="M183.223 44.2238C184.122 45.0601 184.874 45.7988 185.662 46.6072C186.449 47.4156 187.181 48.2171 187.927 49.0325C189.397 50.6772 190.819 52.3637 192.178 54.1199C193.537 55.8761 194.84 57.6602 196.073 59.5209C197.307 61.3817 198.464 63.3051 199.558 65.2774L199.697 65.5283C199.799 65.7144 199.881 65.9106 199.941 66.1137C200.476 68.0934 200.845 70.1146 201.042 72.1559C201.265 74.0793 201.363 75.9819 201.44 77.8635C201.516 79.7452 201.516 81.6268 201.475 83.5015C201.433 85.3762 201.349 87.23 201.168 89.1325C201.115 89.7034 200.86 90.2366 200.447 90.6352C200.035 91.0338 199.494 91.2715 198.922 91.3052C198.349 91.339 197.784 91.1664 197.328 90.819C196.872 90.4715 196.555 89.9721 196.436 89.4113V89.3695C196.053 87.5993 195.739 85.7943 195.356 84.0172C194.972 82.2401 194.659 80.463 194.289 78.7068C193.92 76.9506 193.544 75.2222 193.14 73.5288C192.78 71.9452 192.314 70.3876 191.746 68.8664L192.129 69.6958C191.014 68.0441 189.864 66.4133 188.644 64.8174C187.425 63.2215 186.15 61.6465 184.832 60.0994C183.515 58.5522 182.177 57.026 180.797 55.5346L178.707 53.3115C178.01 52.6146 177.313 51.8201 176.651 51.1859L176.574 51.1023C175.662 50.2188 175.138 49.0091 175.118 47.7394C175.098 46.4697 175.582 45.244 176.466 44.3318C177.349 43.4197 178.559 42.8959 179.829 42.8756C181.099 42.8554 182.324 43.3403 183.236 44.2238H183.223Z" fill="#FFBDA7"/>
<path d="M169.22 37.7315C181.534 33.104 195.005 54.1088 196.288 59.1126C196.643 63.7749 188.51 65.5032 188.51 65.5032C188.51 65.5032 168.544 54.6942 169.22 37.7315Z" fill="#25435F"/>
<path d="M157.688 22.7812C158.504 27.9175 160.664 36.9215 164.846 39.0053C164.846 39.0053 160.121 39.8973 152.657 49.1313C148.51 46.1346 150.12 44.1554 150.12 44.1554C155.054 41.0123 153.953 37.6881 151.737 34.3987L157.688 22.7812Z" fill="#FFBDA7"/>
<path d="M154.25 47.2457C157.546 46.5906 160.188 50.9881 160.188 50.9881C160.188 50.9881 165.86 43.0224 166.934 38.4438C165.799 38.2407 164.675 37.9778 163.568 37.6562C163.568 37.6562 155.449 44.7926 154.25 47.2457Z" fill="white"/>
<path d="M151.086 47.7807C151.086 47.7807 148.633 49.4603 148.996 53.6208C145.86 46.9584 148.682 44.6516 148.682 44.6516C149.377 43.8724 150.335 43.3763 151.372 43.2578C150.807 43.8613 150.469 44.6427 150.417 45.468C150.365 46.2932 150.601 47.1109 151.086 47.7807Z" fill="white"/>
<path opacity="0.2" d="M155.261 27.5234L151.734 34.4019C152.269 35.1654 152.736 35.9746 153.128 36.8202C154.975 35.6563 156.857 32.2415 156.306 30.0323C156.11 29.1404 155.756 28.2908 155.261 27.5234Z" fill="black"/>
<path d="M139.333 30.0658H137.709C137.681 30.0653 137.654 30.0588 137.629 30.0468C137.603 30.0348 137.581 30.0175 137.563 29.9961C137.546 29.9735 137.534 29.9474 137.528 29.9198C137.522 29.8921 137.522 29.8634 137.528 29.8358L138.337 26.1073C138.345 26.0655 138.367 26.0279 138.401 26.0012C138.434 25.9744 138.475 25.9602 138.518 25.961C138.561 25.9611 138.603 25.9756 138.637 26.0021C138.671 26.0285 138.695 26.0656 138.706 26.1073L139.514 29.8358C139.52 29.8634 139.521 29.8921 139.515 29.9198C139.509 29.9474 139.497 29.9735 139.479 29.9961C139.461 30.0168 139.438 30.0337 139.413 30.0457C139.388 30.0576 139.361 30.0645 139.333 30.0658ZM137.939 29.6825H139.103L138.532 27.0481L137.939 29.6825Z" fill="white"/>
<path d="M157.487 11.8337C159.41 19.8551 160.386 23.2002 157.758 28.6361C153.793 36.8178 143.82 37.905 139.597 30.7268C135.799 24.2735 133.325 12.2379 139.827 6.38387C146.329 0.529847 155.563 3.81228 157.487 11.8337Z" fill="#FFBDA7"/>
<path d="M135.008 15.2813C142.388 13.8387 146.855 6.68845 150.34 6.91843C149.81 12.3404 154.061 18.4662 158.25 18.6125C163.916 18.8077 158.668 4.88346 154.863 2.68123C150.849 0.332652 133.705 0.165394 135.008 15.2813Z" fill="#263238"/>
<path d="M154.812 18.914C154.184 18.9005 153.577 18.6883 153.077 18.3077C150.519 16.4748 148.972 10.7811 149.955 6.81566C149.961 6.76166 149.979 6.7096 150.007 6.66296C150.035 6.61631 150.072 6.57614 150.117 6.54511C150.161 6.51408 150.212 6.49291 150.266 6.48299C150.319 6.47308 150.374 6.47464 150.427 6.4876C150.48 6.50055 150.529 6.52459 150.572 6.55812C150.615 6.59164 150.65 6.63389 150.675 6.68205C150.7 6.73022 150.715 6.7832 150.718 6.83748C150.721 6.89175 150.713 6.94608 150.693 6.99686C149.794 10.6417 151.216 16.0567 153.516 17.6874C153.868 17.9668 154.301 18.1251 154.751 18.1389C155.2 18.1527 155.642 18.0213 156.011 17.7641C156.052 17.7369 156.099 17.7182 156.148 17.7091C156.197 17.6999 156.247 17.7006 156.295 17.7109C156.344 17.7213 156.39 17.7412 156.431 17.7695C156.472 17.7977 156.507 17.8338 156.534 17.8756C156.589 17.9607 156.608 18.0642 156.587 18.1635C156.566 18.2627 156.507 18.3497 156.422 18.4052C155.945 18.7245 155.386 18.901 154.812 18.914Z" fill="#263238"/>
<path d="M146.314 18.3149C146.502 19.0119 146.314 19.6391 145.91 19.7924C145.505 19.9457 145.004 19.5206 144.815 18.8585C144.627 18.1965 144.815 17.5274 145.22 17.3811C145.624 17.2347 146.126 17.6459 146.314 18.3149Z" fill="#263238"/>
<path d="M138.101 22.7427C138.528 22.6416 138.745 22.0131 138.585 21.339C138.426 20.6648 137.95 20.2002 137.523 20.3013C137.096 20.4024 136.879 21.0309 137.039 21.7051C137.199 22.3792 137.674 22.8438 138.101 22.7427Z" fill="#263238"/>
<path d="M137.659 20.3047L136.008 20.3953C136.008 20.3953 137.144 21.3431 137.659 20.3047Z" fill="#263238"/>
<path d="M141.045 21.5547C140.914 23.2834 140.562 24.9883 140 26.6282C141.073 27.1439 142.383 26.2518 142.383 26.2518L141.045 21.5547Z" fill="#A02724"/>
<path d="M146.483 27.2761C146.126 27.4097 145.757 27.51 145.382 27.5758C145.356 27.5797 145.33 27.5784 145.306 27.572C145.281 27.5656 145.258 27.5543 145.238 27.5386C145.217 27.523 145.2 27.5034 145.188 27.481C145.176 27.4586 145.168 27.434 145.165 27.4085C145.159 27.3543 145.174 27.2998 145.206 27.2558C145.238 27.2119 145.286 27.1818 145.34 27.1716C146.189 27.022 146.993 26.6831 147.692 26.1799C148.392 25.6768 148.97 25.0224 149.382 24.2655C149.403 24.2166 149.443 24.1777 149.492 24.157C149.541 24.1363 149.597 24.1352 149.647 24.154C149.67 24.1658 149.692 24.1823 149.709 24.2023C149.727 24.2224 149.74 24.2458 149.748 24.271C149.757 24.2963 149.76 24.323 149.758 24.3495C149.756 24.3761 149.749 24.402 149.737 24.4258C149.039 25.7429 147.88 26.7574 146.483 27.2761Z" fill="#263238"/>
<path d="M161.456 19.4477C161.309 20.2245 161.003 20.9622 160.555 21.6138C160.107 22.2654 159.529 22.8165 158.856 23.2319C157.156 24.1797 155.825 22.2841 155.902 20.0401C155.971 18.0121 156.94 15.0781 158.843 15.0781C160.745 15.0781 161.902 17.3779 161.456 19.4477Z" fill="#FFBDA7"/>
<path d="M142.159 15.4294C142.186 15.3847 142.223 15.3462 142.266 15.3162C142.309 15.2863 142.358 15.2655 142.41 15.2552C142.896 15.1851 143.357 14.9948 143.751 14.7015C144.146 14.4082 144.461 14.0213 144.668 13.5757C144.685 13.5276 144.712 13.4837 144.748 13.4469C144.783 13.4101 144.826 13.3813 144.873 13.3622C144.921 13.3431 144.971 13.3342 145.023 13.3362C145.074 13.3382 145.124 13.3509 145.169 13.3736C145.267 13.4206 145.344 13.5022 145.385 13.6025C145.426 13.7029 145.429 13.815 145.392 13.9171C145.139 14.4844 144.747 14.9789 144.253 15.3552C143.758 15.7315 143.177 15.9775 142.563 16.0706C142.458 16.0845 142.351 16.0566 142.267 15.9927C142.182 15.9288 142.126 15.8341 142.11 15.7291C142.089 15.6266 142.107 15.5201 142.159 15.4294Z" fill="#263238"/>
<path d="M135.15 18.5545C135.104 18.5753 135.054 18.586 135.004 18.586C134.953 18.586 134.903 18.5753 134.857 18.5545C134.81 18.5327 134.767 18.5017 134.731 18.4633C134.695 18.4248 134.668 18.3796 134.649 18.3304C134.631 18.2811 134.623 18.2288 134.625 18.1763C134.628 18.1239 134.64 18.0724 134.662 18.0249C134.892 17.4153 135.26 16.8669 135.736 16.4222C136.212 15.9774 136.784 15.6483 137.408 15.4602C137.459 15.4503 137.511 15.4508 137.561 15.4617C137.611 15.4727 137.659 15.4938 137.701 15.5239C137.742 15.5539 137.778 15.5922 137.804 15.6364C137.83 15.6806 137.848 15.7298 137.854 15.7808C137.87 15.8882 137.845 15.9975 137.784 16.0876C137.724 16.1777 137.632 16.2422 137.527 16.2687C137.035 16.423 136.585 16.6879 136.212 17.0431C135.839 17.3983 135.552 17.8342 135.373 18.3176C135.354 18.3704 135.325 18.4187 135.287 18.4595C135.248 18.5003 135.202 18.5326 135.15 18.5545Z" fill="#263238"/>
<path d="M145.417 17.3516L143.766 17.4422C143.766 17.4422 144.902 18.4109 145.417 17.3516Z" fill="#263238"/>
<path d="M187.012 65.5017C187.607 66.0022 188.268 66.4174 188.977 66.7353C189.037 66.7492 189.099 66.7492 189.158 66.7353C189.925 66.6725 195.249 66.0384 197.654 61.5851C197.696 61.5085 197.715 61.4215 197.71 61.3342C197.561 60.1949 197.189 59.0961 196.615 58.1006C196.584 58.0446 196.54 57.9967 196.487 57.9609C196.433 57.925 196.373 57.9021 196.309 57.8939C196.245 57.8858 196.18 57.8927 196.12 57.9141C196.059 57.9354 196.005 57.9707 195.96 58.0169C194.817 59.2574 191.159 62.9789 187.11 64.7769C187.038 64.8022 186.975 64.8467 186.928 64.9053C186.88 64.964 186.85 65.0347 186.84 65.1096C186.83 65.1845 186.84 65.2607 186.871 65.3299C186.901 65.3991 186.95 65.4585 187.012 65.5017Z" fill="white"/>
<path d="M132.834 111.13L129.412 118.099C129.25 118.428 129.022 118.721 128.744 118.958C128.465 119.196 128.14 119.375 127.79 119.483C127.44 119.591 127.071 119.627 126.706 119.588C126.342 119.549 125.989 119.436 125.67 119.256L81.5625 94.3976L85.4443 86.5156L131.531 107.52C131.855 107.67 132.146 107.883 132.387 108.146C132.629 108.409 132.815 108.717 132.937 109.053C133.058 109.389 133.111 109.745 133.094 110.102C133.076 110.459 132.988 110.808 132.834 111.13Z" fill="#AF6152"/>
<path opacity="0.4" d="M132.834 111.13L129.412 118.099C129.25 118.428 129.022 118.721 128.744 118.958C128.465 119.196 128.14 119.375 127.79 119.483C127.44 119.591 127.071 119.627 126.706 119.588C126.342 119.549 125.989 119.436 125.67 119.256L81.5625 94.3976L85.4443 86.5156L131.531 107.52C131.855 107.67 132.146 107.883 132.387 108.146C132.629 108.409 132.815 108.717 132.937 109.053C133.058 109.389 133.111 109.745 133.094 110.102C133.076 110.459 132.988 110.808 132.834 111.13Z" fill="black"/>
<path d="M85.4778 58.1926C85.422 58.0532 85.3732 57.9208 85.3244 57.7884C85.1363 57.3005 84.9342 56.8197 84.7251 56.3388L84.6345 56.1506C84.4533 55.7325 84.2582 55.3213 84.0561 54.9101C83.9864 54.7638 83.9097 54.6244 83.833 54.4781C83.6588 54.1296 83.4776 53.7811 83.2895 53.4397C83.2128 53.3142 83.1431 53.1818 83.0734 53.0494C82.8156 52.5894 82.5438 52.1364 82.265 51.6556L82.1674 51.5023C81.9166 51.105 81.6587 50.7078 81.3939 50.3175L81.1081 49.9133C80.8851 49.5927 80.6482 49.2722 80.4112 48.9516L80.1394 48.5822C79.8119 48.1571 79.4774 47.732 79.1359 47.3208L79.0314 47.2023C78.7178 46.826 78.3902 46.4567 78.0627 46.0943L77.7281 45.7319C77.4494 45.4392 77.1706 45.1465 76.8849 44.8607L76.5504 44.5193C76.1601 44.1336 75.7629 43.7573 75.3587 43.3903L75.275 43.3136C74.8917 42.9651 74.5015 42.6167 74.0973 42.2961L73.714 41.9825L72.7383 41.2159L72.348 40.9162C71.8834 40.5817 71.4188 40.2542 70.9542 39.9336H70.9054C70.4524 39.6339 69.9925 39.3343 69.5116 39.0485L69.0656 38.7767C68.7102 38.5607 68.3687 38.3516 67.9714 38.1425L67.5184 37.8917C67.0097 37.6129 66.501 37.3411 65.9713 37.0833C47.343 27.9398 25.3834 34.4838 16.9439 51.7183L14.1562 57.2936C22.5958 40.0939 44.5554 33.5499 63.1907 42.6934C63.7133 42.9512 64.229 43.223 64.7308 43.4948C64.8841 43.5784 65.0374 43.6621 65.1838 43.7527C65.5532 43.9548 65.9225 44.1708 66.2849 44.3868L66.724 44.6517C67.1909 44.9444 67.6509 45.2371 68.1178 45.5437L68.1666 45.5785C68.6405 45.8991 69.0935 46.2267 69.5604 46.5612L69.9507 46.8609C70.2782 47.1118 70.6057 47.3626 70.9194 47.6205L71.3166 47.9411C71.7138 48.2756 72.1041 48.638 72.4874 48.9516L72.571 49.0282C72.9822 49.3976 73.3725 49.7809 73.7627 50.1642C73.8812 50.2757 73.9857 50.3872 74.0973 50.4987C74.383 50.7845 74.6617 51.0772 74.9405 51.3699L75.275 51.7392C75.6095 52.1016 75.9301 52.4361 76.2437 52.8473L76.3483 52.9658C76.6921 53.3793 77.0266 53.7974 77.3518 54.2202L77.6306 54.5965C77.8675 54.9101 78.0975 55.2307 78.3275 55.5583C78.4181 55.6907 78.5156 55.8231 78.6062 55.9625C78.8711 56.3527 79.1289 56.743 79.3798 57.1402C79.4147 57.196 79.4495 57.2448 79.4774 57.3005C79.7561 57.7466 80.0279 58.2065 80.2858 58.6943L80.5018 59.0916C80.69 59.4331 80.8712 59.7885 81.0524 60.13L81.2684 60.5621C81.4705 60.9732 81.6657 61.3844 81.8469 61.7956C81.8817 61.8583 81.9096 61.928 81.9375 61.9907C82.1465 62.4646 82.3486 62.9525 82.5368 63.4333L82.6901 63.8375C82.8295 64.2069 82.9549 64.5344 83.0804 64.9317C83.1361 65.085 83.1849 65.2383 83.2337 65.3916C83.3731 65.8098 83.4985 66.2279 83.624 66.653C83.624 66.7297 83.6728 66.8063 83.6937 66.89C83.8331 67.3848 83.9585 67.8866 84.07 68.3814C84.07 68.5207 84.1327 68.6601 84.1606 68.7995C84.2442 69.1758 84.3209 69.5522 84.3906 69.9285C84.3906 70.0888 84.4533 70.2491 84.4742 70.4094C84.5509 70.8275 84.6136 71.2526 84.6693 71.6777C84.6693 71.7683 84.6693 71.852 84.7042 71.9426C84.7739 72.4513 84.8227 72.96 84.8645 73.4688V73.8869C84.8923 74.2726 84.9132 74.6558 84.9272 75.0368C84.9272 75.1971 84.9272 75.3644 84.9272 75.5247C84.9272 75.9428 84.9272 76.3609 84.9272 76.7861V77.0718C84.9272 77.2321 84.9272 77.3924 84.9272 77.5457C84.9272 78.0126 84.8854 78.4865 84.8436 78.9395C84.8436 79.1625 84.7948 79.3855 84.7739 79.6364C84.7321 80.0313 84.6833 80.4286 84.6275 80.8281C84.6275 81.072 84.5509 81.316 84.509 81.525C84.4463 81.9083 84.3766 82.2916 84.3 82.668C84.2512 82.9119 84.1954 83.1558 84.1467 83.3649C84.0561 83.7551 83.9585 84.1454 83.854 84.5287C83.7843 84.7726 83.7215 85.0165 83.6518 85.2674L83.4846 85.804C83.3801 86.1455 83.2686 86.5009 83.1501 86.8215C83.0874 87.0097 83.0177 87.1909 82.948 87.3791C82.8225 87.7275 82.6832 88.076 82.5368 88.4244C82.4741 88.5847 82.4114 88.745 82.3417 88.9053C82.1256 89.407 81.9026 89.9088 81.6448 90.4036L84.3975 84.7935C84.6415 84.2987 84.8645 83.797 85.0945 83.2952C85.1641 83.1349 85.2269 82.9746 85.2896 82.8143C85.4359 82.4659 85.5683 82.1174 85.7008 81.769C85.7704 81.5878 85.8332 81.3996 85.9029 81.2184C86.0213 80.8769 86.1328 80.5215 86.2374 80.2009L86.4046 79.6573L86.4883 79.3925C86.5301 79.2392 86.5649 79.0789 86.6067 78.9186C86.7043 78.5353 86.8088 78.152 86.8925 77.7617C86.9482 77.5178 87.004 77.2809 87.0528 77.0648C87.1294 76.6815 87.1991 76.2982 87.2618 75.9219C87.3036 75.678 87.3455 75.4341 87.3803 75.225C87.4361 74.8278 87.4848 74.4305 87.5267 74.0263C87.5267 73.8033 87.5754 73.5803 87.5963 73.3294C87.6382 72.8625 87.6591 72.3955 87.68 71.9356C87.68 71.8032 87.68 71.6708 87.68 71.5383V71.169C87.68 70.7508 87.68 70.3257 87.68 69.9076C87.68 69.7473 87.68 69.587 87.68 69.4267C87.68 69.0434 87.68 68.6532 87.6172 68.2699C87.6172 68.1305 87.6172 67.9911 87.6172 67.8587C87.6172 67.343 87.5266 66.8342 87.4639 66.3255C87.4639 66.2419 87.4639 66.1512 87.4291 66.0607C87.3733 65.6425 87.3106 65.2174 87.234 64.7923L87.1503 64.3184C87.0806 63.9421 87.004 63.5657 86.9203 63.1894C86.9203 63.05 86.8646 62.9106 86.8298 62.7712C86.7113 62.2695 86.5858 61.7677 86.4534 61.2729C86.426 61.1952 86.4028 61.1161 86.3837 61.036C86.2583 60.6178 86.1328 60.1997 85.9935 59.7815C85.9447 59.6282 85.8959 59.4749 85.8401 59.3216C85.7426 58.9174 85.6102 58.555 85.4778 58.1926Z" fill="#AF6152"/>
<path opacity="0.4" d="M85.4778 58.1926C85.422 58.0532 85.3732 57.9208 85.3244 57.7884C85.1363 57.3005 84.9342 56.8197 84.7251 56.3388L84.6345 56.1506C84.4533 55.7325 84.2582 55.3213 84.0561 54.9101C83.9864 54.7638 83.9097 54.6244 83.833 54.4781C83.6588 54.1296 83.4776 53.7811 83.2895 53.4397C83.2128 53.3142 83.1431 53.1818 83.0734 53.0494C82.8156 52.5894 82.5438 52.1364 82.265 51.6556L82.1674 51.5023C81.9166 51.105 81.6587 50.7078 81.3939 50.3175L81.1081 49.9133C80.8851 49.5927 80.6482 49.2722 80.4112 48.9516L80.1394 48.5822C79.8119 48.1571 79.4774 47.732 79.1359 47.3208L79.0314 47.2023C78.7178 46.826 78.3902 46.4567 78.0627 46.0943L77.7281 45.7319C77.4494 45.4392 77.1706 45.1465 76.8849 44.8607L76.5504 44.5193C76.1601 44.1336 75.7629 43.7573 75.3587 43.3903L75.275 43.3136C74.8917 42.9651 74.5015 42.6167 74.0973 42.2961L73.714 41.9825L72.7383 41.2159L72.348 40.9162C71.8834 40.5817 71.4188 40.2542 70.9542 39.9336H70.9054C70.4524 39.6339 69.9925 39.3343 69.5116 39.0485L69.0656 38.7767C68.7102 38.5607 68.3687 38.3516 67.9714 38.1425L67.5184 37.8917C67.0097 37.6129 66.501 37.3411 65.9713 37.0833C47.343 27.9398 25.3834 34.4838 16.9439 51.7183L14.1562 57.2936C22.5958 40.0939 44.5554 33.5499 63.1907 42.6934C63.7133 42.9512 64.229 43.223 64.7308 43.4948C64.8841 43.5784 65.0374 43.6621 65.1838 43.7527C65.5532 43.9548 65.9225 44.1708 66.2849 44.3868L66.724 44.6517C67.1909 44.9444 67.6509 45.2371 68.1178 45.5437L68.1666 45.5785C68.6405 45.8991 69.0935 46.2267 69.5604 46.5612L69.9507 46.8609C70.2782 47.1118 70.6057 47.3626 70.9194 47.6205L71.3166 47.9411C71.7138 48.2756 72.1041 48.638 72.4874 48.9516L72.571 49.0282C72.9822 49.3976 73.3725 49.7809 73.7627 50.1642C73.8812 50.2757 73.9857 50.3872 74.0973 50.4987C74.383 50.7845 74.6617 51.0772 74.9405 51.3699L75.275 51.7392C75.6095 52.1016 75.9301 52.4361 76.2437 52.8473L76.3483 52.9658C76.6921 53.3793 77.0266 53.7974 77.3518 54.2202L77.6306 54.5965C77.8675 54.9101 78.0975 55.2307 78.3275 55.5583C78.4181 55.6907 78.5156 55.8231 78.6062 55.9625C78.8711 56.3527 79.1289 56.743 79.3798 57.1402C79.4147 57.196 79.4495 57.2448 79.4774 57.3005C79.7561 57.7466 80.0279 58.2065 80.2858 58.6943L80.5018 59.0916C80.69 59.4331 80.8712 59.7885 81.0524 60.13L81.2684 60.5621C81.4705 60.9732 81.6657 61.3844 81.8469 61.7956C81.8817 61.8583 81.9096 61.928 81.9375 61.9907C82.1465 62.4646 82.3486 62.9525 82.5368 63.4333L82.6901 63.8375C82.8295 64.2069 82.9549 64.5344 83.0804 64.9317C83.1361 65.085 83.1849 65.2383 83.2337 65.3916C83.3731 65.8098 83.4985 66.2279 83.624 66.653C83.624 66.7297 83.6728 66.8063 83.6937 66.89C83.8331 67.3848 83.9585 67.8866 84.07 68.3814C84.07 68.5207 84.1327 68.6601 84.1606 68.7995C84.2442 69.1758 84.3209 69.5522 84.3906 69.9285C84.3906 70.0888 84.4533 70.2491 84.4742 70.4094C84.5509 70.8275 84.6136 71.2526 84.6693 71.6777C84.6693 71.7683 84.6693 71.852 84.7042 71.9426C84.7739 72.4513 84.8227 72.96 84.8645 73.4688V73.8869C84.8923 74.2726 84.9132 74.6558 84.9272 75.0368C84.9272 75.1971 84.9272 75.3644 84.9272 75.5247C84.9272 75.9428 84.9272 76.3609 84.9272 76.7861V77.0718C84.9272 77.2321 84.9272 77.3924 84.9272 77.5457C84.9272 78.0126 84.8854 78.4865 84.8436 78.9395C84.8436 79.1625 84.7948 79.3855 84.7739 79.6364C84.7321 80.0313 84.6833 80.4286 84.6275 80.8281C84.6275 81.072 84.5509 81.316 84.509 81.525C84.4463 81.9083 84.3766 82.2916 84.3 82.668C84.2512 82.9119 84.1954 83.1558 84.1467 83.3649C84.0561 83.7551 83.9585 84.1454 83.854 84.5287C83.7843 84.7726 83.7215 85.0165 83.6518 85.2674L83.4846 85.804C83.3801 86.1455 83.2686 86.5009 83.1501 86.8215C83.0874 87.0097 83.0177 87.1909 82.948 87.3791C82.8225 87.7275 82.6832 88.076 82.5368 88.4244C82.4741 88.5847 82.4114 88.745 82.3417 88.9053C82.1256 89.407 81.9026 89.9088 81.6448 90.4036L84.3975 84.7935C84.6415 84.2987 84.8645 83.797 85.0945 83.2952C85.1641 83.1349 85.2269 82.9746 85.2896 82.8143C85.4359 82.4659 85.5683 82.1174 85.7008 81.769C85.7704 81.5878 85.8332 81.3996 85.9029 81.2184C86.0213 80.8769 86.1328 80.5215 86.2374 80.2009L86.4046 79.6573L86.4883 79.3925C86.5301 79.2392 86.5649 79.0789 86.6067 78.9186C86.7043 78.5353 86.8088 78.152 86.8925 77.7617C86.9482 77.5178 87.004 77.2809 87.0528 77.0648C87.1294 76.6815 87.1991 76.2982 87.2618 75.9219C87.3036 75.678 87.3455 75.4341 87.3803 75.225C87.4361 74.8278 87.4848 74.4305 87.5267 74.0263C87.5267 73.8033 87.5754 73.5803 87.5963 73.3294C87.6382 72.8625 87.6591 72.3955 87.68 71.9356C87.68 71.8032 87.68 71.6708 87.68 71.5383V71.169C87.68 70.7508 87.68 70.3257 87.68 69.9076C87.68 69.7473 87.68 69.587 87.68 69.4267C87.68 69.0434 87.68 68.6532 87.6172 68.2699C87.6172 68.1305 87.6172 67.9911 87.6172 67.8587C87.6172 67.343 87.5266 66.8342 87.4639 66.3255C87.4639 66.2419 87.4639 66.1512 87.4291 66.0607C87.3733 65.6425 87.3106 65.2174 87.234 64.7923L87.1503 64.3184C87.0806 63.9421 87.004 63.5657 86.9203 63.1894C86.9203 63.05 86.8646 62.9106 86.8298 62.7712C86.7113 62.2695 86.5858 61.7677 86.4534 61.2729C86.426 61.1952 86.4028 61.1161 86.3837 61.036C86.2583 60.6178 86.1328 60.1997 85.9935 59.7815C85.9447 59.6282 85.8959 59.4749 85.8401 59.3216C85.7426 58.9174 85.6102 58.555 85.4778 58.1926Z" fill="black"/>
<path d="M30.88 108.64C30.1831 108.306 29.5349 107.944 28.8798 107.602L28.2944 107.274C27.8136 107.003 27.3397 106.731 26.9006 106.445L26.3292 106.104C25.7228 105.727 25.1235 105.344 24.5381 104.947L24.4684 104.905C23.8598 104.487 23.2674 104.062 22.6913 103.63L22.1756 103.239C21.7505 102.919 21.3323 102.584 20.9142 102.25L20.4124 101.839C19.8967 101.407 19.388 100.974 18.8932 100.528L18.7817 100.431C18.252 99.95 17.7363 99.4622 17.2345 98.9604L16.7955 98.5213C16.4261 98.152 16.0986 97.7757 15.7153 97.3924L15.2762 96.9184C14.8441 96.4446 14.426 95.9637 14.0148 95.4828L13.8894 95.3295C13.4364 94.7929 13.0043 94.2493 12.5861 93.6987L12.2238 93.2179C11.9171 92.8067 11.6174 92.3886 11.3247 91.9704L10.9623 91.4477C10.6139 90.939 10.2654 90.4302 9.95881 89.9145L9.82639 89.7055C9.464 89.127 9.12948 88.5347 8.78103 87.9423C8.68346 87.775 8.59286 87.6008 8.50227 87.4266C8.25603 86.9852 8.02372 86.5392 7.80536 86.0885C7.70779 85.9003 7.61023 85.7122 7.51963 85.524C7.26177 84.9944 7.01089 84.4647 6.76697 83.9281C6.76697 83.8445 6.69031 83.7608 6.6485 83.6702C6.3767 83.057 6.11885 82.4297 5.87493 81.8025C5.80524 81.6283 5.74252 81.4471 5.6798 81.2729C5.4986 80.806 5.33134 80.3321 5.17105 79.8791C5.10136 79.677 5.03167 79.4818 4.96895 79.2797C4.79704 78.7408 4.62978 78.1972 4.46717 77.649C4.46717 77.5514 4.40445 77.4469 4.37658 77.3423C4.19538 76.7012 4.03509 76.053 3.88874 75.4049C3.84693 75.2237 3.80511 75.0425 3.77027 74.8683C3.65876 74.3805 3.56119 73.8857 3.4706 73.3978C3.4706 73.1957 3.39394 72.9866 3.35909 72.7845C3.27082 72.2317 3.18719 71.6811 3.10821 71.1329C3.10821 71.0214 3.10821 70.9029 3.05942 70.7914C2.97579 70.1363 2.91307 69.4742 2.86429 68.8122C2.86429 68.631 2.86429 68.4568 2.86429 68.2756C2.82944 67.7738 2.80157 67.279 2.78763 66.7772V66.15C2.78763 65.6064 2.78763 65.0628 2.78763 64.5123V64.1359C2.78763 63.9338 2.78763 63.7317 2.78763 63.5296C2.78763 62.9233 2.84338 62.31 2.89913 61.7037C2.89913 61.418 2.96186 61.1253 2.98973 60.8326C3.04549 60.3169 3.1082 59.8012 3.1779 59.2855C3.22668 58.9788 3.27546 58.6652 3.33122 58.3516C3.41484 57.8591 3.50544 57.3643 3.60301 56.8672C3.66573 56.5536 3.73542 56.24 3.80511 55.9264C3.92126 55.4246 4.04671 54.9228 4.18144 54.421C4.27204 54.1005 4.3487 53.7799 4.44627 53.4663C4.54383 53.1527 4.58565 52.9994 4.66231 52.7694C4.80169 52.3303 4.94107 51.8913 5.09439 51.4522C5.18499 51.2083 5.26862 50.9713 5.35225 50.7553C5.52647 50.2953 5.7007 49.8493 5.88886 49.3615L6.13975 48.7412C6.42548 48.0861 6.71818 47.438 7.03179 46.7969L4.24416 52.3721C3.93055 53.0203 3.63786 53.6684 3.35909 54.3165C3.26849 54.5256 3.18486 54.7346 3.10124 54.9367C2.91307 55.3897 2.73884 55.8427 2.57158 56.3306C2.48099 56.5675 2.39736 56.8114 2.31373 57.0275C2.16041 57.4665 2.01406 57.9056 1.87468 58.3516C1.79802 58.5816 1.72833 58.8185 1.65864 59.0485C1.65864 59.167 1.58198 59.2785 1.5541 59.397C1.52622 59.5154 1.44957 59.8012 1.40079 60.0102C1.2614 60.512 1.13596 61.0068 1.01748 61.5086C0.947793 61.8222 0.885071 62.1358 0.81538 62.4494C0.717813 62.9419 0.627216 63.4367 0.543587 63.9338C0.487834 64.2474 0.43905 64.561 0.390266 64.8747C0.320576 65.3904 0.257856 65.9061 0.202104 66.4218C0.202104 66.7075 0.139379 67.0002 0.111502 67.2929C0.0627189 67.8992 0.0278763 68.5055 0 69.1119C0 69.2861 0 69.4533 0 69.6206C0 69.6554 0 69.6903 0 69.7251V70.1015C0 70.645 0 71.1886 0 71.7392C0 71.9483 0 72.1573 0 72.3664C0 72.8612 0.0418149 73.363 0.0766602 73.8578C0.0766602 74.039 0.0766602 74.2202 0.0766602 74.3944C0.125444 75.0913 0.195134 75.7185 0.271793 76.3806C0.271793 76.4921 0.271793 76.6036 0.320577 76.7221C0.397237 77.2726 0.480866 77.8232 0.571464 78.3668C0.606309 78.5759 0.648121 78.778 0.682966 78.987C0.773564 79.4749 0.871131 79.9627 0.982637 80.4505C0.982637 80.6317 1.0593 80.8129 1.10111 80.9941C1.24747 81.6422 1.41472 82.2904 1.58895 82.9315L1.67954 83.2312C1.83983 83.7817 2.00709 84.3253 2.18132 84.8689C2.24404 85.071 2.31373 85.2662 2.38342 85.4613C2.54371 85.9352 2.71097 86.4091 2.89217 86.8551C2.95489 87.0363 3.02458 87.2105 3.0873 87.3917C3.33819 88.0189 3.58907 88.6392 3.86087 89.2594C3.90268 89.3431 3.94449 89.4267 3.97934 89.5103C4.22326 90.0469 4.47415 90.5836 4.732 91.1132L5.01773 91.6777C5.25003 92.1423 5.48234 92.5883 5.71464 93.0158L5.9934 93.5315C6.32792 94.1239 6.69031 94.7093 7.03876 95.2947L7.17118 95.5037C7.49175 96.0194 7.82627 96.5282 8.17472 97.03L8.53711 97.5526C8.82981 97.9708 9.12949 98.3889 9.43612 98.8001L9.79851 99.281C10.2236 99.8315 10.6557 100.382 11.1017 100.919L11.2272 101.065C11.6384 101.553 12.0565 102.034 12.4886 102.508L12.9276 102.975C13.283 103.358 13.6245 103.734 14.0148 104.111L14.4469 104.55C14.9556 105.044 15.4644 105.539 15.994 106.013L16.0986 106.111C16.6003 106.575 17.1091 107.014 17.6248 107.428L18.1335 107.839C18.5447 108.174 18.9628 108.501 19.388 108.829L19.9037 109.219C20.4821 109.651 21.0745 110.076 21.6808 110.487L21.7505 110.529C22.3359 110.926 22.9352 111.31 23.5415 111.686L24.113 112.034C24.5799 112.313 25.0538 112.592 25.5068 112.857L26.0922 113.184C26.7473 113.547 27.4163 113.895 28.0993 114.23C52.2471 126.077 80.7019 117.603 91.6572 95.2947L94.4031 89.6845C83.4895 112.02 55.0348 120.495 30.88 108.64Z" fill="#AF6152"/>
<path opacity="0.4" d="M30.88 108.64C30.1831 108.306 29.5349 107.944 28.8798 107.602L28.2944 107.274C27.8136 107.003 27.3397 106.731 26.9006 106.445L26.3292 106.104C25.7228 105.727 25.1235 105.344 24.5381 104.947L24.4684 104.905C23.8598 104.487 23.2674 104.062 22.6913 103.63L22.1756 103.239C21.7505 102.919 21.3323 102.584 20.9142 102.25L20.4124 101.839C19.8967 101.407 19.388 100.974 18.8932 100.528L18.7817 100.431C18.252 99.95 17.7363 99.4622 17.2345 98.9604L16.7955 98.5213C16.4261 98.152 16.0986 97.7757 15.7153 97.3924L15.2762 96.9184C14.8441 96.4446 14.426 95.9637 14.0148 95.4828L13.8894 95.3295C13.4364 94.7929 13.0043 94.2493 12.5861 93.6987L12.2238 93.2179C11.9171 92.8067 11.6174 92.3886 11.3247 91.9704L10.9623 91.4477C10.6139 90.939 10.2654 90.4302 9.95881 89.9145L9.82639 89.7055C9.464 89.127 9.12948 88.5347 8.78103 87.9423C8.68346 87.775 8.59286 87.6008 8.50227 87.4266C8.25603 86.9852 8.02372 86.5392 7.80536 86.0885C7.70779 85.9003 7.61023 85.7122 7.51963 85.524C7.26177 84.9944 7.01089 84.4647 6.76697 83.9281C6.76697 83.8445 6.69031 83.7608 6.6485 83.6702C6.3767 83.057 6.11885 82.4297 5.87493 81.8025C5.80524 81.6283 5.74252 81.4471 5.6798 81.2729C5.4986 80.806 5.33134 80.3321 5.17105 79.8791C5.10136 79.677 5.03167 79.4818 4.96895 79.2797C4.79704 78.7408 4.62978 78.1972 4.46717 77.649C4.46717 77.5514 4.40445 77.4469 4.37658 77.3423C4.19538 76.7012 4.03509 76.053 3.88874 75.4049C3.84693 75.2237 3.80511 75.0425 3.77027 74.8683C3.65876 74.3805 3.56119 73.8857 3.4706 73.3978C3.4706 73.1957 3.39394 72.9866 3.35909 72.7845C3.27082 72.2317 3.18719 71.6811 3.10821 71.1329C3.10821 71.0214 3.10821 70.9029 3.05942 70.7914C2.97579 70.1363 2.91307 69.4742 2.86429 68.8122C2.86429 68.631 2.86429 68.4568 2.86429 68.2756C2.82944 67.7738 2.80157 67.279 2.78763 66.7772V66.15C2.78763 65.6064 2.78763 65.0628 2.78763 64.5123V64.1359C2.78763 63.9338 2.78763 63.7317 2.78763 63.5296C2.78763 62.9233 2.84338 62.31 2.89913 61.7037C2.89913 61.418 2.96186 61.1253 2.98973 60.8326C3.04549 60.3169 3.1082 59.8012 3.1779 59.2855C3.22668 58.9788 3.27546 58.6652 3.33122 58.3516C3.41484 57.8591 3.50544 57.3643 3.60301 56.8672C3.66573 56.5536 3.73542 56.24 3.80511 55.9264C3.92126 55.4246 4.04671 54.9228 4.18144 54.421C4.27204 54.1005 4.3487 53.7799 4.44627 53.4663C4.54383 53.1527 4.58565 52.9994 4.66231 52.7694C4.80169 52.3303 4.94107 51.8913 5.09439 51.4522C5.18499 51.2083 5.26862 50.9713 5.35225 50.7553C5.52647 50.2953 5.7007 49.8493 5.88886 49.3615L6.13975 48.7412C6.42548 48.0861 6.71818 47.438 7.03179 46.7969L4.24416 52.3721C3.93055 53.0203 3.63786 53.6684 3.35909 54.3165C3.26849 54.5256 3.18486 54.7346 3.10124 54.9367C2.91307 55.3897 2.73884 55.8427 2.57158 56.3306C2.48099 56.5675 2.39736 56.8114 2.31373 57.0275C2.16041 57.4665 2.01406 57.9056 1.87468 58.3516C1.79802 58.5816 1.72833 58.8185 1.65864 59.0485C1.65864 59.167 1.58198 59.2785 1.5541 59.397C1.52622 59.5154 1.44957 59.8012 1.40079 60.0102C1.2614 60.512 1.13596 61.0068 1.01748 61.5086C0.947793 61.8222 0.885071 62.1358 0.81538 62.4494C0.717813 62.9419 0.627216 63.4367 0.543587 63.9338C0.487834 64.2474 0.43905 64.561 0.390266 64.8747C0.320576 65.3904 0.257856 65.9061 0.202104 66.4218C0.202104 66.7075 0.139379 67.0002 0.111502 67.2929C0.0627189 67.8992 0.0278763 68.5055 0 69.1119C0 69.2861 0 69.4533 0 69.6206C0 69.6554 0 69.6903 0 69.7251V70.1015C0 70.645 0 71.1886 0 71.7392C0 71.9483 0 72.1573 0 72.3664C0 72.8612 0.0418149 73.363 0.0766602 73.8578C0.0766602 74.039 0.0766602 74.2202 0.0766602 74.3944C0.125444 75.0913 0.195134 75.7185 0.271793 76.3806C0.271793 76.4921 0.271793 76.6036 0.320577 76.7221C0.397237 77.2726 0.480866 77.8232 0.571464 78.3668C0.606309 78.5759 0.648121 78.778 0.682966 78.987C0.773564 79.4749 0.871131 79.9627 0.982637 80.4505C0.982637 80.6317 1.0593 80.8129 1.10111 80.9941C1.24747 81.6422 1.41472 82.2904 1.58895 82.9315L1.67954 83.2312C1.83983 83.7817 2.00709 84.3253 2.18132 84.8689C2.24404 85.071 2.31373 85.2662 2.38342 85.4613C2.54371 85.9352 2.71097 86.4091 2.89217 86.8551C2.95489 87.0363 3.02458 87.2105 3.0873 87.3917C3.33819 88.0189 3.58907 88.6392 3.86087 89.2594C3.90268 89.3431 3.94449 89.4267 3.97934 89.5103C4.22326 90.0469 4.47415 90.5836 4.732 91.1132L5.01773 91.6777C5.25003 92.1423 5.48234 92.5883 5.71464 93.0158L5.9934 93.5315C6.32792 94.1239 6.69031 94.7093 7.03876 95.2947L7.17118 95.5037C7.49175 96.0194 7.82627 96.5282 8.17472 97.03L8.53711 97.5526C8.82981 97.9708 9.12949 98.3889 9.43612 98.8001L9.79851 99.281C10.2236 99.8315 10.6557 100.382 11.1017 100.919L11.2272 101.065C11.6384 101.553 12.0565 102.034 12.4886 102.508L12.9276 102.975C13.283 103.358 13.6245 103.734 14.0148 104.111L14.4469 104.55C14.9556 105.044 15.4644 105.539 15.994 106.013L16.0986 106.111C16.6003 106.575 17.1091 107.014 17.6248 107.428L18.1335 107.839C18.5447 108.174 18.9628 108.501 19.388 108.829L19.9037 109.219C20.4821 109.651 21.0745 110.076 21.6808 110.487L21.7505 110.529C22.3359 110.926 22.9352 111.31 23.5415 111.686L24.113 112.034C24.5799 112.313 25.0538 112.592 25.5068 112.857L26.0922 113.184C26.7473 113.547 27.4163 113.895 28.0993 114.23C52.2471 126.077 80.7019 117.603 91.6572 95.2947L94.4031 89.6845C83.4895 112.02 55.0348 120.495 30.88 108.64Z" fill="black"/>
<path d="M20.8052 28.6201L20.4219 28.0347C22.1502 26.9047 23.9496 25.8874 25.809 24.9892L26.1156 25.6164C24.281 26.4992 22.507 27.5026 20.8052 28.6201ZM31.3354 23.4629L31.1055 22.8078C39.4006 20.0009 48.2713 19.3392 56.891 20.8844L56.7726 21.5813C48.2703 20.0576 39.521 20.7048 31.3354 23.4629Z" fill="#AF6152"/>
<path d="M6.97591 46.7948C17.9243 24.4938 46.3721 16.0194 70.5269 27.8738C94.6817 39.7282 105.372 67.4163 94.4378 89.7173C83.5033 112.018 55.0346 120.507 30.8798 108.652C6.72502 96.7979 -3.97251 69.0958 6.97591 46.7948ZM84.4441 84.8111C92.8837 67.6114 84.6323 46.2373 65.997 37.0938C47.3617 27.9504 25.4091 34.4944 16.9696 51.7289C8.53001 68.9634 16.7884 90.3027 35.4167 99.4461C54.045 108.59 75.9906 102.053 84.4441 84.8111Z" fill="#B9958E"/>
<path d="M135.617 105.518L132.132 112.571C131.974 112.894 131.752 113.182 131.479 113.418C131.207 113.654 130.891 113.833 130.548 113.944C130.206 114.055 129.844 114.096 129.485 114.065C129.127 114.034 128.778 113.931 128.46 113.763L83.6484 90.1656L88.2271 80.8828L134.307 101.888C134.635 102.036 134.93 102.248 135.174 102.513C135.418 102.777 135.607 103.087 135.729 103.426C135.852 103.765 135.905 104.124 135.885 104.484C135.866 104.843 135.775 105.195 135.617 105.518Z" fill="#B9958E"/>
<path opacity="0.1" d="M85.0888 85.122C93.6956 67.5948 85.284 45.8164 66.2723 36.4987C47.2607 27.1811 24.9109 33.8505 16.3041 51.3777C7.69727 68.9049 16.1229 90.6903 35.1206 100.008C54.1183 109.326 76.475 102.67 85.0818 85.122" fill="white"/>
<path d="M122.481 92.4884C119.652 91.4709 117.708 93.3525 115.749 94.3282C115.415 94.4955 115.512 95.4851 116.181 95.5826C116.585 95.6779 117.003 95.6906 117.412 95.6199C117.82 95.5492 118.21 95.3967 118.558 95.1715C119.255 95.8126 121.75 96.8859 123.576 94.9554C123.524 94.0272 123.135 93.1498 122.481 92.4884Z" fill="#FFBDA7"/>
<path d="M159.872 26.4251H158.255C158.227 26.4258 158.198 26.42 158.172 26.408C158.146 26.3961 158.123 26.3783 158.105 26.3562C158.087 26.334 158.074 26.3079 158.067 26.28C158.061 26.2521 158.061 26.2231 158.067 26.1951L158.876 22.4736C158.885 22.4306 158.909 22.392 158.943 22.3642C158.977 22.3363 159.02 22.3209 159.064 22.3203C159.107 22.3198 159.15 22.335 159.183 22.3632C159.216 22.3913 159.238 22.4306 159.245 22.4736L160.053 26.1951C160.06 26.2227 160.06 26.2515 160.054 26.2793C160.048 26.307 160.036 26.3331 160.019 26.3554C160.002 26.378 159.979 26.3962 159.954 26.4083C159.928 26.4205 159.9 26.4262 159.872 26.4251ZM158.478 26.0488H159.621L159.05 23.4145L158.478 26.0488Z" fill="white"/>
</svg>
